<svg xmlns="http://www.w3.org/2000/svg" width="24" height="24" viewBox="0 0 24 24">
    <g fill="#4388FF" fill-rule="evenodd">
        <path d="M12.561 5.674c2.013 1.37 4.025 2.742 6.037 4.113.643.375.417 1.052 0 1.052-.21.007-.702.007-1.48 0a.1.1 0 0 0-.1.1v6.51a1 1 0 0 1-1 1h-7.98a1 1 0 0 1-1-1v-6.51a.1.1 0 0 0-.1-.1H5.457c-.444 0-.713-.654-.094-1.052l6.074-4.115a1 1 0 0 1 1.124.002zm-.281.751a.5.5 0 0 0-.56 0l-5.244 3.54a.05.05 0 0 0 .028.092H17.51a.05.05 0 0 0 .028-.092l-5.258-3.54zm-4.39 4.396a.1.1 0 0 0-.1.1v6.18a.6.6 0 0 0 .6.6h7.3a.6.6 0 0 0 .6-.6v-6.18a.1.1 0 0 0-.1-.1h-8.3z"/>
        <path d="M12 24C5.373 24 0 18.627 0 12S5.373 0 12 0s12 5.373 12 12-5.373 12-12 12zm0-.75c6.213 0 11.25-5.037 11.25-11.25S18.213.75 12 .75.75 5.787.75 12 5.787 23.25 12 23.25z"/>
    </g>
</svg>
