<svg xmlns="http://www.w3.org/2000/svg" width="24" height="24" viewBox="0 0 24 24">
    <g fill="#4388FF" fill-rule="evenodd">
        <path d="M7.51 11.305l8.969-.005a1.5 1.5 0 0 1 1.5 1.494l.024 5.005a.5.5 0 0 1-.502.502L6.5 18.273a.5.5 0 0 1-.499-.5l.01-4.97a1.5 1.5 0 0 1 1.5-1.498zM8.377 7.8c.207 0 .375.168.375.375v2.25a.375.375 0 1 1-.75 0v-2.25c0-.207.167-.375.375-.375zm3.648 0c.207 0 .375.168.375.375v2.25a.375.375 0 0 1-.75 0v-2.25c0-.207.168-.375.375-.375zm3.6 0c.207 0 .375.168.375.375v2.25a.375.375 0 1 1-.75 0v-2.25c0-.207.168-.375.375-.375zm-7.223-.24c-.461 0-.762-.438-.461-.735.2-.198.354-.519.461-.964.293.533.456.887.49 1.06.051.262-.028.64-.49.64zm3.63 0c-.462 0-.763-.438-.462-.735.2-.198.355-.519.462-.964.292.533.456.887.49 1.06.05.262-.029.64-.49.64zm3.67-.061c-.461 0-.762-.438-.461-.735.2-.198.354-.52.461-.964.293.533.456.887.49 1.06.051.262-.028.639-.49.639zM7.751 12.05a1 1 0 0 0-1 1v4.3c0 .11.09.2.2.2h10.1a.2.2 0 0 0 .2-.2v-4.3a1 1 0 0 0-1-1h-8.5z"/>
        <path d="M12 24C5.373 24 0 18.627 0 12S5.373 0 12 0s12 5.373 12 12-5.373 12-12 12zm0-.75c6.213 0 11.25-5.037 11.25-11.25S18.213.75 12 .75.75 5.787.75 12 5.787 23.25 12 23.25z"/>
    </g>
</svg>
