<svg xmlns="http://www.w3.org/2000/svg" width="24" height="24" viewBox="0 0 24 24">
    <g fill="#4388FF" fill-rule="evenodd">
        <path d="M7 8h10a1 1 0 0 1 1 1v6a1 1 0 0 1-1 1H7a1 1 0 0 1-1-1V9a1 1 0 0 1 1-1zm.96.75a.1.1 0 0 0-.054.184l3.946 2.558a.3.3 0 0 0 .326 0l3.945-2.558a.1.1 0 0 0-.054-.184H7.96zm-1.21 5.995a.5.5 0 0 0 .5.5h9.5a.5.5 0 0 0 .5-.5V9.233a.1.1 0 0 0-.156-.083l-4.815 3.237a.5.5 0 0 1-.558 0L6.906 9.15a.1.1 0 0 0-.156.083v5.512z"/>
        <path d="M12 24C5.373 24 0 18.627 0 12S5.373 0 12 0s12 5.373 12 12-5.373 12-12 12zm0-.75c6.213 0 11.25-5.037 11.25-11.25S18.213.75 12 .75.75 5.787.75 12 5.787 23.25 12 23.25z"/>
    </g>
</svg>
