<svg xmlns="http://www.w3.org/2000/svg" width="24" height="25" viewBox="0 0 24 25">
    <g fill="#4388FF" fill-rule="evenodd">
        <path d="M9 11.5h6a3 3 0 0 1 3 3v2a3 3 0 0 1-3 3H9a3 3 0 0 1-3-3v-2a3 3 0 0 1 3-3zm.15.75a2.4 2.4 0 0 0-2.4 2.4v1.7a2.4 2.4 0 0 0 2.4 2.4h5.7a2.4 2.4 0 0 0 2.4-2.4v-1.7a2.4 2.4 0 0 0-2.4-2.4h-5.7zM12 10.5a2.5 2.5 0 1 1 0-5 2.5 2.5 0 0 1 0 5zm0-.75a1.75 1.75 0 1 0 0-3.5 1.75 1.75 0 0 0 0 3.5z"/>
        <path d="M12 24.5c-6.627 0-12-5.373-12-12S5.373.5 12 .5s12 5.373 12 12-5.373 12-12 12zm0-.75c6.213 0 11.25-5.037 11.25-11.25S18.213 1.25 12 1.25.75 6.287.75 12.5 5.787 23.75 12 23.75z"/>
    </g>
</svg>
