<svg xmlns="http://www.w3.org/2000/svg" xmlns:xlink="http://www.w3.org/1999/xlink" width="24" height="24" viewBox="0 0 24 24">
    <defs>
        <path id="a" d="M0 0h10v14H0z"/>
    </defs>
    <g fill="none" fill-rule="evenodd">
        <g transform="translate(7 5)">
            <mask id="b" fill="#fff">
                <use xlink:href="#a"/>
            </mask>
            <path fill="#4388FF" d="M5 9a3 3 0 1 1 0-6 3 3 0 0 1 0 6zm2.23-3.39c-.114-1.118-1.071-1.99-2.234-1.99-1.168 0-2.127.878-2.236 2 4.27-.01 3.033-.01 4.47-.01zM4.995 8.37A2.238 2.238 0 0 0 7.23 6.371L2.76 6.37c.113 1.123 1.07 2 2.235 2z" mask="url(#b)"/>
            <path fill="#4388FF" d="M.3 0H9a1 1 0 0 1 1 1v12a1 1 0 0 1-1 1H.3a.3.3 0 0 1-.3-.3V.3A.3.3 0 0 1 .3 0zm.65.75a.2.2 0 0 0-.2.2v12.1c0 .11.09.2.2.2h7.8a.5.5 0 0 0 .5-.5V1.25a.5.5 0 0 0-.5-.5H.95zm1.425 9.75h5.25a.375.375 0 1 1 0 .75h-5.25a.375.375 0 1 1 0-.75z" mask="url(#b)"/>
            <path fill="#4388FF" d="M5.745 6.251h.75c-.035.827-.237 1.56-.538 2.06a2.493 2.493 0 0 1-1.914 0c-.302-.5-.504-1.233-.538-2.06h.75c.041 1.124.36 1.999.745 1.999.386 0 .704-.874.745-1.999zM5.745 5.75c-.041-1.125-.359-2-.745-2s-.705.877-.746 2.004l-.75.002c.034-.83.237-1.565.54-2.066a2.493 2.493 0 0 1 1.913 0c.301.5.503 1.23.538 2.057l-.75.002z" mask="url(#b)"/>
        </g>
        <path fill="#4388FF" d="M12 24C5.373 24 0 18.627 0 12S5.373 0 12 0s12 5.373 12 12-5.373 12-12 12zm0-.75c6.213 0 11.25-5.037 11.25-11.25S18.213.75 12 .75.75 5.787.75 12 5.787 23.25 12 23.25z"/>
    </g>
</svg>
