<svg xmlns="http://www.w3.org/2000/svg" width="24" height="24" viewBox="0 0 24 24">
    <path fill="#4388FF" fill-rule="evenodd" d="M12 24C5.373 24 0 18.627 0 12S5.373 0 12 0s12 5.373 12 12-5.373 12-12 12zm0-.75c6.213 0 11.25-5.037 11.25-11.25S18.213.75 12 .75.75 5.787.75 12 5.787 23.25 12 23.25zM9.2 5h5.6A1.2 1.2 0 0 1 16 6.2v11.6a1.2 1.2 0 0 1-1.2 1.2H9.2A1.2 1.2 0 0 1 8 17.8V6.2A1.2 1.2 0 0 1 9.2 5zm-.45 3v7.5h6.5V8h-6.5zm6.5 8.25h-6.5v1.4a.6.6 0 0 0 .6.6h5.3a.6.6 0 0 0 .6-.6v-1.4zm-5.9-10.5a.6.6 0 0 0-.6.6v.9h6.5v-.9a.6.6 0 0 0-.6-.6h-5.3zM12 17.76a.5.5 0 1 0 0-1 .5.5 0 0 0 0 1z"/>
</svg>
