<svg xmlns="http://www.w3.org/2000/svg" width="24" height="24" viewBox="0 0 24 24">
    <g fill="#4388FF" fill-rule="evenodd">
        <path d="M8 7h8a1 1 0 0 1 1 1v8a1 1 0 0 1-1 1H8a1 1 0 0 1-1-1V8a1 1 0 0 1 1-1zm.25.75a.5.5 0 0 0-.5.5v7.5a.5.5 0 0 0 .5.5h.345v-.09a3 3 0 0 1 3-3h.808a3 3 0 0 1 3 3v.09h-.822a2.35 2.35 0 0 0-2.35-2.35h-.522a2.287 2.287 0 0 0-2.286 2.35h6.327a.5.5 0 0 0 .5-.5v-7.5a.5.5 0 0 0-.5-.5h-7.5zM12 13a2 2 0 1 0 0-4 2 2 0 0 0 0 4zm0-.75a1.25 1.25 0 1 0 0-2.5 1.25 1.25 0 0 0 0 2.5z"/>
        <path d="M12 24C5.373 24 0 18.627 0 12S5.373 0 12 0s12 5.373 12 12-5.373 12-12 12zm0-.75c6.213 0 11.25-5.037 11.25-11.25S18.213.75 12 .75.75 5.787.75 12 5.787 23.25 12 23.25z"/>
    </g>
</svg>
