<svg xmlns="http://www.w3.org/2000/svg" width="24" height="24" viewBox="0 0 24 24">
    <g fill="#4388FF" fill-rule="evenodd">
        <path d="M8 5h8a1 1 0 0 1 1 1v10.034a1 1 0 0 1-.277.691l-1.88 1.966a1 1 0 0 1-.722.309H8a1 1 0 0 1-1-1V6a1 1 0 0 1 1-1zm.25.75a.5.5 0 0 0-.5.5v11.5a.5.5 0 0 0 .5.5h5.095v-1.816a1 1 0 0 1 1-1h1.905V6.25a.5.5 0 0 0-.5-.5h-7.5zm6.042 12.362l1.71-1.767a.1.1 0 0 0-.072-.17h-1.21a.6.6 0 0 0-.6.6v1.268a.1.1 0 0 0 .172.069zM9.375 11h5.25a.375.375 0 1 1 0 .75h-5.25a.375.375 0 1 1 0-.75zm0 1.25h3.25a.375.375 0 1 1 0 .75h-3.25a.375.375 0 1 1 0-.75zm0 1.25h3.25a.375.375 0 1 1 0 .75h-3.25a.375.375 0 1 1 0-.75zm.125-5h5a.5.5 0 1 1 0 1h-5a.5.5 0 0 1 0-1z"/>
        <path d="M12 24C5.373 24 0 18.627 0 12S5.373 0 12 0s12 5.373 12 12-5.373 12-12 12zm0-.75c6.213 0 11.25-5.037 11.25-11.25S18.213.75 12 .75.75 5.787.75 12 5.787 23.25 12 23.25z"/>
    </g>
</svg>
