<?xml version="1.0" encoding="utf-8"?>
<!-- Generator: Adobe Illustrator 16.0.4, SVG Export Plug-In . SVG Version: 6.00 Build 0)  -->
<!DOCTYPE svg PUBLIC "-//W3C//DTD SVG 1.1//EN" "http://www.w3.org/Graphics/SVG/1.1/DTD/svg11.dtd">
<svg version="1.1" id="Layer_1" xmlns="http://www.w3.org/2000/svg" xmlns:xlink="http://www.w3.org/1999/xlink" x="0px" y="0px"
	 width="500px" height="500px" viewBox="0 0 500 500" enable-background="new 0 0 500 500" xml:space="preserve">
<g id="I61iku.tif">
	<g>
		<path fill-rule="evenodd" clip-rule="evenodd" fill="#000000" d="M492,51.646c-2.403,11.699-4.539,22.211-6.729,32.717
			c-25.122,120.877-50.244,241.764-75.365,362.639c-2.811,13.531-12.404,17.267-23.753,9.053
			c-35.091-25.371-70.104-50.85-105.168-76.27c-12.646-9.16-18.937-9.016-30.936,0.756c-18.497,15.029-36.932,30.137-55.433,45.16
			c-10.838,8.814-20.374,5.973-24.495-7.275c-13.446-43.256-26.91-86.494-40.215-129.797c-1.246-4.057-3.202-6.289-7.327-7.805
			c-34.329-12.612-68.574-25.432-102.783-38.365c-3.185-1.205-6.552-3.015-8.769-5.502c-5.13-5.75-3.492-14.628,3.048-18.826
			c1.953-1.256,4.183-2.133,6.363-2.978c149.945-57.842,299.9-115.647,449.834-173.52c6.384-2.469,12.518-3.576,17.547,2.134
			C489.898,46.136,490.881,49.471,492,51.646z M153.804,280.602c0.292,1.465,0.611,3.977,1.295,6.385
			c7.454,26.301,14.965,52.588,22.468,78.889c0.963,3.389,2.194,6.605,6.629,6.094c4.039-0.469,4.781-3.567,5.228-6.914
			c1.779-13.309,3.819-26.582,5.376-39.916c1.305-11.23,6.248-20.174,14.524-27.848c57.998-53.745,115.868-107.63,173.763-161.474
			c1.24-1.14,2.822-2.138,3.499-3.558c0.601-1.256,0.732-3.473-0.002-4.422c-0.746-0.963-2.859-1.277-4.314-1.156
			c-1.2,0.096-2.341,1.213-3.485,1.916c-45.158,27.814-90.307,55.636-135.475,83.458c-25.723,15.846-51.418,31.729-77.195,47.495
			C158.525,264.188,153.999,270.48,153.804,280.602z"/>
	</g>
</g>
</svg>
